Work

Ripped direct from VOB.

The usual deinterlacing, croping and resize back to x16...
Also converted to greyscale to get rid of color spots, lowered the
brightness a bit and encoded to settings below.

File

Format : Matroska
File size : 63.3 MiB
Duration : 3mn 48s
Overall bit rate : 2 321 Kbps
Encoded date : UTC 2009-07-17 03:06:53
Writing application : mkvmerge v2.9.7 ('Tenderness')
Writing library : libebml v0.7.7 + libmatroska v0.8.1

Video

Format profile : High@L5.1
Format settings, CABAC : Yes
Format settings, ReFrames : 8 frames
Muxing mode : Container profile=Unknown@5.1
Codec ID : V_MPEG4/ISO/AVC
Duration : 3mn 48s
Bit rate : 1 954 Kbps
Nominal bit rate : 2 000 Kbps
Width : 720 pixels
Height : 480 pixels
Display aspect ratio : 4/3
Frame rate : 23.976 fps
Standard : NTSC
Resolution : 24 bits
Colorimetry : 4:2:0
Scan type : Progressive
Bits/(Pixel*Frame) : 0.236
Stream size : 53.3 MiB (84%)
Writing library : x264 core 68 r1181M 49bf767
Encoding settings : cabac=1 / ref=8 / deblock=1:-1:-1 /
analyse=0x3:0x133 / me=tesa / subme=9 / psy_rd=1.0:0.0 / mixed_ref=1 /
me_range=32 / chroma_me=1 / trellis=2 / 8x8dct=1 / cqm=0 / deadzone=21,11 /
chroma_qp_offset=-2 / threads=3 / nr=0 / decimate=0 / mbaff=0 / bframes=4 /
b_pyramid=1 / b_adapt=2 / b_bias=0 / direct=3 / wpredb=1 / keyint=240 /
keyint_min=24 / scenecut=40 / rc=2pass / bitrate=2000 / ratetol=1.0 /
qcomp=0.60 / qpmin=10 / qpmax=51 / qpstep=4 / cplxblur=20.0 / qblur=0.5 /
ip_ratio=1.40 / pb_ratio=1.30 / aq=1:1.00

Audio

Codec ID/Hint : MP3
Duration : 3mn 48s
Bit rate mode : Constant
Bit rate : 320 Kbps
Channel(s) : 2 channels
Sampling rate : 48.0 KHz
Resolution : 16 bits
Stream size : 8.73 MiB (14%)
Writing library : LAME3.98r
Encoding settings : -m j -V 4 -q 2 -lowpass 20.5
Language : English

Screens
 
http://i18.photobucket.com/albums/b116/mattlb0619/mariah_mv/myall/snapshot20090716224337.jpg 
http://i18.photobucket.com/albums/b116/mattlb0619/mariah_mv/myall/snapshot20090716224349.jpg 
http://i18.photobucket.com/albums/b116/mattlb0619/mariah_mv/myall/snapshot20090716224422.jpg 
http://i18.photobucket.com/albums/b116/mattlb0619/mariah_mv/myall/thumbs20090716224427.jpg